<?xml version="1.0" encoding="UTF-8" standalone="no"?>
<!DOCTYPE svg PUBLIC "-//W3C//DTD SVG 20010904//EN"
              "http://www.w3.org/TR/2001/REC-SVG-20010904/DTD/svg10.dtd">

<svg xmlns="http://www.w3.org/2000/svg"
     width="2.12333in" height="0.826667in"
     viewBox="0 0 637 248">
  <path id="Selection"
        fill="white" stroke="black" stroke-width="1"
        d="M 539.00,25.00
           C 556.72,17.49 557.94,18.60 575.00,14.12
             575.00,14.12 593.00,8.90 593.00,8.90
             604.83,6.01 601.24,8.29 616.00,3.23
             620.13,1.81 627.87,-0.69 631.98,0.89
             634.88,2.01 637.36,4.63 636.34,7.95
             635.08,12.08 628.53,13.89 625.00,15.63
             625.00,15.63 610.00,25.36 610.00,25.36
             610.00,25.36 601.00,30.17 601.00,30.17
             601.00,30.17 575.00,49.17 575.00,49.17
             575.00,49.17 558.00,64.53 558.00,64.53
             549.93,70.60 534.52,78.42 528.30,85.30
             525.62,88.26 523.99,95.04 522.67,99.00
             522.67,99.00 512.94,127.00 512.94,127.00
             512.94,127.00 498.89,157.00 498.89,157.00
             498.89,157.00 492.30,171.91 492.30,171.91
             492.30,171.91 486.61,178.09 486.61,178.09
             486.61,178.09 475.91,191.99 475.91,191.99
             471.94,196.15 468.62,197.79 465.82,203.00
             461.55,210.98 456.84,225.15 454.18,234.00
             453.16,237.39 452.75,244.25 450.44,246.40
             448.01,248.68 438.33,249.87 439.17,239.00
             440.04,227.79 442.73,226.12 444.00,218.00
             437.30,220.14 433.56,224.26 428.00,228.25
             428.00,228.25 406.00,241.60 406.00,241.60
             395.87,246.35 389.15,243.71 389.00,232.00
             388.86,220.13 391.86,213.31 394.09,202.00
             395.23,196.24 397.35,194.89 396.00,189.00
             394.44,196.25 387.96,202.46 383.09,208.00
             377.22,214.67 370.24,224.42 363.00,229.49
             360.37,231.33 358.16,231.86 355.00,231.96
             345.50,232.26 344.09,225.98 344.00,218.00
             343.90,209.20 344.37,210.11 346.00,202.00
             346.00,202.00 327.78,219.17 327.78,219.17
             322.01,226.31 325.19,224.25 317.00,230.59
             317.00,230.59 305.83,240.98 305.83,240.98
             304.18,241.89 301.84,242.12 300.02,241.68
             293.42,240.08 294.99,231.22 295.00,226.00
             295.02,216.21 295.89,218.44 298.25,210.00
             298.25,210.00 301.46,198.00 301.46,198.00
             306.70,184.59 312.92,173.73 315.00,159.00
             315.00,159.00 302.74,173.09 302.74,173.09
             302.74,173.09 296.70,180.91 296.70,180.91
             296.70,180.91 289.32,188.04 289.32,188.04
             289.32,188.04 267.54,214.99 267.54,214.99
             267.54,214.99 261.56,221.28 261.56,221.28
             259.13,224.45 257.93,231.53 255.19,234.69
             252.34,237.97 244.58,238.44 243.65,231.00
             242.46,221.43 250.94,214.10 250.00,205.00
             245.88,214.64 232.33,226.03 223.00,230.79
             218.54,233.22 210.28,234.47 206.28,230.79
             201.15,225.84 204.14,217.52 202.00,210.00
             198.17,217.72 179.46,229.75 171.72,221.69
             169.47,219.34 163.97,209.20 163.30,206.00
             162.41,201.83 163.77,200.22 162.00,194.00
             160.86,198.86 157.90,207.38 153.87,210.44
             146.65,215.94 131.71,210.26 126.90,203.74
             125.92,202.42 121.72,192.78 121.20,191.00
             121.20,191.00 115.30,173.00 115.30,173.00
             115.30,173.00 114.71,164.00 114.71,164.00
             114.71,164.00 112.06,151.00 112.06,151.00
             112.06,151.00 112.06,121.00 112.06,121.00
             112.06,121.00 112.06,62.00 112.06,62.00
             107.78,66.71 104.62,72.13 99.00,75.42
             95.39,77.56 83.63,77.94 80.21,75.42
             78.10,73.83 76.33,70.30 75.00,68.00
             75.00,68.00 72.46,81.00 72.46,81.00
             72.46,81.00 70.26,88.00 70.26,88.00
             70.26,88.00 69.54,95.00 69.54,95.00
             69.54,95.00 67.30,105.00 67.30,105.00
             67.30,105.00 65.83,120.00 65.83,120.00
             65.83,120.00 63.58,134.00 63.58,134.00
             62.85,139.28 62.83,142.96 60.62,148.00
             60.62,148.00 58.49,153.00 58.49,153.00
             58.49,153.00 57.32,160.00 57.32,160.00
             57.32,160.00 53.97,168.00 53.97,168.00
             49.40,180.02 48.49,185.01 39.00,195.00
             32.48,201.87 29.33,207.73 19.00,207.99
             9.33,208.22 7.64,207.42 3.01,199.00
             1.66,196.54 0.46,194.77 -0.28,192.00
             -1.65,186.88 -0.51,177.64 6.94,179.33
             13.51,180.82 11.94,194.37 19.02,194.37
             21.86,194.37 25.10,190.96 26.87,189.00
             32.69,182.57 37.24,175.18 39.96,167.00
             39.96,167.00 45.37,154.00 45.37,154.00
             45.37,154.00 46.81,146.00 46.81,146.00
             47.91,142.82 49.11,141.83 49.80,138.00
             49.80,138.00 55.30,98.00 55.30,98.00
             55.30,98.00 57.68,88.00 57.68,88.00
             58.72,81.69 57.38,84.34 59.83,77.00
             59.83,77.00 61.51,69.00 61.51,69.00
             61.51,69.00 64.54,60.00 64.54,60.00
             64.54,60.00 70.08,31.00 70.08,31.00
             70.64,26.77 73.13,18.87 78.95,20.66
             82.93,21.88 83.74,26.44 83.96,30.00
             84.44,37.67 84.73,46.64 86.53,54.00
             87.08,56.27 87.73,62.82 90.31,63.42
             94.14,64.31 97.76,57.68 99.20,55.00
             99.20,55.00 110.56,35.00 110.56,35.00
             112.22,31.40 113.62,26.31 118.04,25.33
             125.61,23.66 125.97,31.90 125.91,37.00
             125.91,37.00 125.91,51.00 125.91,51.00
             125.08,58.01 124.02,56.07 124.00,66.00
             124.00,66.00 124.00,138.00 124.00,138.00
             124.02,149.22 125.95,149.77 126.98,158.00
             126.98,158.00 126.98,165.00 126.98,165.00
             127.70,169.05 129.55,170.43 130.70,175.00
             132.33,181.45 134.99,191.93 140.09,196.47
             146.44,202.12 147.67,195.32 151.00,187.00
             151.00,187.00 160.95,163.00 160.95,163.00
             162.79,155.99 161.16,151.09 163.31,147.06
             165.72,142.54 171.12,141.85 174.15,146.15
             176.16,149.01 176.06,153.62 175.99,157.00
             175.99,157.00 175.00,169.00 175.00,169.00
             175.00,169.00 175.00,193.00 175.00,193.00
             175.01,197.23 176.48,207.19 181.22,208.82
             185.07,210.14 194.37,199.75 196.83,197.00
             200.97,192.35 215.86,168.22 219.03,162.00
             219.03,162.00 226.52,147.00 226.52,147.00
             228.53,143.98 231.24,140.13 235.00,139.33
             239.97,138.28 243.21,142.26 242.34,147.00
             241.37,152.33 235.54,159.17 233.26,164.00
             233.26,164.00 226.28,181.00 226.28,181.00
             222.40,189.13 216.15,200.97 216.00,210.00
             216.00,210.00 216.00,220.00 216.00,220.00
             221.80,215.44 227.76,211.30 232.96,205.99
             238.54,200.28 242.51,193.50 247.09,187.04
             247.09,187.04 251.98,180.83 251.98,180.83
             251.98,180.83 265.33,158.00 265.33,158.00
             265.33,158.00 282.05,119.00 282.05,119.00
             282.05,119.00 285.36,107.00 285.36,107.00
             285.36,107.00 292.22,94.00 292.22,94.00
             292.22,94.00 305.34,61.00 305.34,61.00
             307.76,56.78 309.59,50.91 315.95,52.33
             320.41,53.33 321.14,58.17 320.52,62.00
             319.59,67.75 314.81,81.16 312.69,87.00
             312.69,87.00 308.49,99.00 308.49,99.00
             308.49,99.00 304.09,108.00 304.09,108.00
             304.09,108.00 298.68,125.00 298.68,125.00
             298.68,125.00 290.13,143.00 290.13,143.00
             290.13,143.00 279.03,162.00 279.03,162.00
             279.03,162.00 269.00,192.00 269.00,192.00
             269.00,192.00 278.17,181.00 278.17,181.00
             278.17,181.00 288.59,170.00 288.59,170.00
             288.59,170.00 299.59,155.17 299.59,155.17
             299.59,155.17 305.49,149.54 305.49,149.54
             307.73,146.94 307.79,144.70 309.69,142.21
             309.69,142.21 317.37,134.04 317.37,134.04
             321.33,129.71 329.30,126.74 332.98,133.13
             334.16,135.18 334.04,138.66 333.99,141.00
             333.76,150.93 330.04,156.30 327.44,165.00
             327.44,165.00 318.94,192.00 318.94,192.00
             318.94,192.00 313.10,205.00 313.10,205.00
             313.10,205.00 309.00,220.00 309.00,220.00
             309.00,220.00 322.00,206.09 322.00,206.09
             337.19,191.86 352.81,178.12 366.08,162.00
             366.08,162.00 383.04,137.39 383.04,137.39
             388.35,133.05 396.38,132.01 403.00,132.00
             405.81,132.00 419.98,132.80 421.87,133.60
             423.20,134.16 423.98,134.89 424.68,136.15
             428.21,142.43 421.30,156.78 419.09,163.00
             419.09,163.00 415.45,176.00 415.45,176.00
             413.32,181.98 411.65,183.12 409.75,191.00
             409.75,191.00 408.47,200.00 408.47,200.00
             408.47,200.00 406.34,207.00 406.34,207.00
             406.34,207.00 402.00,228.00 402.00,228.00
             413.42,222.91 420.10,216.72 430.00,210.09
             439.41,203.78 444.92,202.92 452.61,193.00
             456.22,188.34 456.26,185.15 458.09,180.00
             458.09,180.00 464.54,161.00 464.54,161.00
             464.54,161.00 467.09,152.00 467.09,152.00
             467.09,152.00 471.69,142.00 471.69,142.00
             471.69,142.00 477.12,128.00 477.12,128.00
             477.12,128.00 480.10,122.00 480.10,122.00
             480.10,122.00 482.46,114.00 482.46,114.00
             482.46,114.00 492.05,90.00 492.05,90.00
             492.05,90.00 493.61,81.00 493.61,81.00
             493.61,81.00 498.00,67.00 498.00,67.00
             498.00,67.00 493.00,67.00 493.00,67.00
             483.65,67.13 463.58,74.89 455.00,79.26
             455.00,79.26 442.00,86.22 442.00,86.22
             436.67,88.41 427.53,88.20 429.33,80.04
             430.08,76.68 433.39,74.94 436.00,73.12
             444.02,67.51 444.98,67.01 454.00,63.58
             470.12,57.43 468.45,54.76 478.00,49.82
             489.63,43.80 501.72,39.70 514.00,35.31
             516.97,34.25 521.47,32.68 523.78,30.59
             526.73,27.90 530.90,15.21 537.46,22.31
             538.53,23.47 538.60,24.21 539.00,25.00 Z
           M 585.00,25.00
           C 585.00,25.00 550.00,34.42 550.00,34.42
             550.00,34.42 538.02,40.49 538.02,40.49
             538.02,40.49 536.10,48.00 536.10,48.00
             536.10,48.00 533.00,64.00 533.00,64.00
             539.59,62.60 539.02,60.94 544.00,57.55
             544.00,57.55 551.00,53.57 551.00,53.57
             551.00,53.57 566.09,39.51 566.09,39.51
             572.30,34.34 579.52,31.21 585.00,25.00 Z
           M 515.00,49.00
           C 515.00,49.00 502.00,54.00 502.00,54.00
             502.00,54.00 511.00,59.00 511.00,59.00
             511.00,59.00 515.00,49.00 515.00,49.00 Z
           M 513.00,87.00
           C 513.00,87.00 511.00,87.00 511.00,87.00
             498.36,109.20 501.25,107.17 493.55,129.00
             493.55,129.00 489.47,138.00 489.47,138.00
             489.47,138.00 487.98,144.00 487.98,144.00
             487.98,144.00 484.37,151.00 484.37,151.00
             484.37,151.00 480.60,161.00 480.60,161.00
             480.60,161.00 477.00,168.00 477.00,168.00
             484.12,162.59 484.11,156.60 488.43,149.00
             499.41,129.65 505.99,108.03 513.00,87.00 Z
           M 165.31,98.02
           C 169.42,96.48 180.30,98.48 183.49,101.56
             187.61,105.54 186.31,115.84 181.78,119.08
             178.25,121.60 168.92,123.43 165.31,120.40
             162.30,117.86 162.06,103.69 163.60,100.15
             164.37,98.36 164.53,98.86 165.31,98.02 Z
           M 408.00,145.00
           C 402.86,145.00 397.67,144.51 393.04,147.23
             389.34,149.40 387.27,153.45 385.05,157.00
             379.65,165.63 373.49,174.60 373.00,185.00
             373.00,185.00 387.21,173.44 387.21,173.44
             387.21,173.44 393.62,167.95 393.62,167.95
             393.62,167.95 404.77,151.72 404.77,151.72
             404.77,151.72 408.00,145.00 408.00,145.00 Z
           M 316.00,158.00
           C 316.00,158.00 315.00,158.00 315.00,158.00
             315.00,158.00 316.00,159.00 316.00,159.00
             316.00,159.00 316.00,158.00 316.00,158.00 Z
           M 269.00,192.00
           C 269.00,192.00 268.00,192.00 268.00,192.00
             268.00,192.00 269.00,193.00 269.00,193.00
             269.00,193.00 269.00,192.00 269.00,192.00 Z
           M 370.00,202.00
           C 370.00,202.00 362.00,200.00 362.00,200.00
             358.65,207.57 357.40,208.28 357.00,217.00
             362.33,213.15 366.90,207.80 370.00,202.00 Z
           M 445.00,217.00
           C 445.00,217.00 444.00,217.00 444.00,217.00
             444.00,217.00 445.00,218.00 445.00,218.00
             445.00,218.00 445.00,217.00 445.00,217.00 Z" />
</svg>
